<svg width="100" height="100">
  <rect x="0" y="0" width="20" height="20" fill="#ccc" stroke="#e2dada" stroke-width="3" />
  <rect x="20" y="0" width="20" height="20" fill="#fff" stroke="#000" stroke-width="1" />
  <rect x="40" y="0" width="20" height="20" fill="#ccc" stroke="#000" stroke-width="3" />
  <rect x="60" y="0" width="20" height="20" fill="#fff" stroke="#000" stroke-width="1" />
  <rect x="80" y="0" width="20" height="20" fill="#ccc" stroke="#000" stroke-width="1" />

  <rect x="0" y="20" width="20" height="20" fill="#fff" stroke="#000" stroke-width="1" />
  <rect x="20" y="20" width="20" height="20" fill="#ccc" stroke="#000" stroke-width="1" />
  <rect x="40" y="20" width="20" height="20" fill="#fff" stroke="#000" stroke-width="1" />
  <rect x="60" y="20" width="20" height="20" fill="#ccc" stroke="#a3b125" stroke-width="1" />
  <rect x="80" y="20" width="20" height="20" fill="#fff" stroke="#000" stroke-width="1" />

  <rect x="0" y="40" width="20" height="20" fill="#ccc" stroke="#000" stroke-width="1" />
  <rect x="20" y="40" width="20" height="20" fill="#fff" stroke="#000" stroke-width="1" />
  <rect x="40" y="40" width="20" height="20" fill="#ccc" stroke="#000" stroke-width="1" />
  <rect x="60" y="40" width="20" height="20" fill="#fff" stroke="#000" stroke-width="1" />
  <rect x="80" y="40" width="20" height="20" fill="#ccc" stroke="#000" stroke-width="1" />

  <rect x="0" y="60" width="20" height="20" fill="#fff" stroke="#000" stroke-width="1" />
  <rect x="20" y="60" width="20" height="20" fill="#ccc" stroke="#000" stroke-width="1" />
  <rect x="40" y="60" width="20" height="20" fill="#fff" stroke="#000" stroke-width="1" />
  <rect x="60" y="60" width="20" height="20" fill="#ccc" stroke="#000" stroke-width="1" />
  <rect x="80" y="60" width="20" height="20" fill="#fff" stroke="#000" stroke-width="1" />

<rect x="0" y="60" width="20" height="20" fill="#fff" stroke="#000" stroke-width="1" />
  <rect x="20" y="60" width="20" height="20" fill="#ccc" stroke="#000" stroke-width="1" />
  <rect x="40" y="60" width="20" height="20" fill="#fff" stroke="#000" stroke-width="1" />
  <rect x="60" y="60" width="20" height="20" fill="#ccc" stroke="#000" stroke-width="1" />
  <rect x="80" y="60" width="20" height="20" fill="#fff" stroke="#000" stroke-width="1" />

    <circle cx="50" cy="100" r="20" fill="#000">
    <animate attributeName="cx" dur="2s" repeatCount="indefinite"
             values="1;20;30" keyTimes="0;0.5;10" />
  </circle>


  
  </svg>